<svg xmlns="http://www.w3.org/2000/svg" width="1200" height="630" viewBox="0 0 1200 630">
  <defs>
    <linearGradient id="bg" x1="0" y1="0" x2="1" y2="1">
      <stop offset="0%" stop-color="#FAF6F0" />
      <stop offset="100%" stop-color="#EADFCC" />
    </linearGradient>
  </defs>
  <rect width="1200" height="630" fill="url(#bg)" />
  <circle cx="260" cy="320" r="220" fill="#C5222F" opacity="0.12" />
  <circle cx="940" cy="120" r="160" fill="#8A4D2F" opacity="0.1" />

  <g transform="translate(140 135) scale(5)">
    <path d="M30 5 L32 15 L40 12 L35 20 L45 25 L35 27 L38 35 L30 30 L22 35 L25 27 L15 25 L25 20 L20 12 L28 15 Z" fill="#C5222F" />
  </g>

  <g transform="translate(120 350)">
    <rect x="0" y="80" width="360" height="70" rx="10" fill="#2D3C47" opacity="0.2" />
    <rect x="30" y="60" width="300" height="90" rx="12" fill="#2D3C47" opacity="0.35" />
    <rect x="50" y="40" width="260" height="110" rx="12" fill="#1C1C1C" opacity="0.9" />
    <rect x="155" y="10" width="50" height="90" rx="8" fill="#1C1C1C" />
    <rect x="165" y="-20" width="30" height="30" rx="6" fill="#1C1C1C" />
    <circle cx="180" cy="-30" r="8" fill="#C5222F" />
  </g>

  <text x="520" y="245" font-size="72" font-family="Fraunces, Georgia, serif" font-weight="700" fill="#1C1C1C">
    CanPoli API
  </text>
  <text x="520" y="315" font-size="28" font-family="DM Sans, system-ui, sans-serif" fill="#6B625B">
    Canadian MP Data
  </text>
  <rect x="520" y="340" width="260" height="4" fill="#C5222F" />
  <text x="520" y="390" font-size="24" font-family="DM Sans, system-ui, sans-serif" fill="#1C1C1C">
    Representatives | Ridings | Parties
  </text>
  <text x="520" y="440" font-size="20" font-family="DM Sans, system-ui, sans-serif" fill="#6B625B">
    api.canpoli.dev/v1
  </text>
</svg>
